<?xml version='1.0' encoding='utf-8'?>
<svg xmlns="http://www.w3.org/2000/svg" enable-background="new 0 0 841.89 841" version="1.1" viewBox="0 0 841.89 841">
	<path d="m670.35 367.94c-0.126 5.094 16.754 23.673 20.291 30.593 6.773 13.25 8.521 27.369 12.619 41.204 6.675 22.532 32.264 43.893 53.948 51.938 1.165 8.67 7.713 15.46 11.078 23.324 3.113 7.275 4.87 14.737 7.946 22.292 6.421 15.769 20.998 31.911 18.823 49.473l2.354 1.177c0.395 2.757 0.378 6.725-0.234 9.411-2.216 9.722-6.996 16.011-16.176 14.058-10.553-2.246-8.867-10.104-11.825-18.735-4.831-14.101-15.456-32.806-24.968-44.673-11.518-14.37-31.817-17.881-47.978-22.148-8.979-2.371-18.272-3.616-26.766-6.437-7.172-2.381-13.964-7.826-21.466-9.123"/>
	<path d="m670.35 367.94c0.023 0.824 0.341 1.599 0.677 2.337 0.343 0.741 0.748 1.452 1.169 2.152 0.85 1.396 1.783 2.74 2.741 4.065 1.924 2.646 3.954 5.214 5.973 7.793 2.024 2.575 4.071 5.134 6.06 7.751 0.992 1.311 1.972 2.633 2.896 4.013 0.46 0.691 0.908 1.395 1.313 2.147l1.115 2.206c2.903 5.972 4.944 12.279 6.683 18.625 0.882 3.17 1.642 6.364 2.45 9.534 0.802 3.173 1.623 6.33 2.545 9.448l0.346 1.169c0.097 0.336 0.25 0.763 0.372 1.14l0.388 1.165 0.428 1.104c0.558 1.47 1.229 2.946 1.939 4.376 1.429 2.87 3.103 5.623 4.95 8.257 3.702 5.268 8.079 10.064 12.842 14.422 4.768 4.356 9.94 8.272 15.395 11.714 5.445 3.448 11.199 6.429 17.199 8.643l1.003 0.369 0.146 1.067c0.536 3.914 2.375 7.628 4.528 11.251 2.145 3.64 4.639 7.26 6.479 11.437l1.24 3.034c0.38 1.038 0.783 2.085 1.143 3.117 0.72 2.06 1.398 4.121 2.069 6.164 0.677 2.042 1.335 4.077 2.063 6.066 0.349 1.005 0.73 1.988 1.117 2.97l0.287 0.737 0.135 0.346 0.158 0.371c0.211 0.489 0.419 1.009 0.633 1.466 0.84 1.88 1.798 3.792 2.789 5.662 0.994 1.877 2.036 3.743 3.093 5.613 2.112 3.742 4.279 7.503 6.252 11.42 1.971 3.912 3.741 8.004 4.92 12.354 1.182 4.336 1.706 8.978 1.123 13.559l-1.071-2 2.352 1.181 0.936 0.47 0.129 1.007c0.31 2.408 0.355 4.728 0.161 7.11-0.036 0.591-0.132 1.197-0.207 1.798-0.109 0.59-0.236 1.283-0.37 1.788-0.272 1.119-0.599 2.273-0.977 3.382-0.765 2.232-1.765 4.455-3.251 6.482-1.471 2.013-3.566 3.82-6.092 4.709-2.515 0.923-5.2 0.889-7.602 0.415-0.739-0.146-1.088-0.236-1.758-0.423-0.631-0.177-1.213-0.38-1.801-0.617-1.171-0.477-2.329-1.124-3.359-1.979-1.04-0.846-1.9-1.92-2.555-3.047-0.66-1.131-1.099-2.312-1.455-3.462-0.691-2.31-1.048-4.524-1.534-6.643-0.237-1.06-0.498-2.095-0.806-3.104-0.297-0.983-0.7-2.023-1.067-3.083-0.377-1.041-0.782-2.031-1.172-3.051l-1.272-3.039c-1.752-4.036-3.708-7.996-5.773-11.899-4.14-7.797-8.764-15.381-14.054-22.423-1.325-1.777-2.682-3.449-4.194-4.947-1.52-1.521-3.173-2.917-4.926-4.188-3.507-2.545-7.396-4.588-11.438-6.291-8.104-3.428-16.782-5.451-25.387-7.804-2.157-0.592-4.289-1.179-6.45-1.72-2.145-0.529-4.313-1.028-6.485-1.521-4.344-0.985-8.713-1.956-13.006-3.246l-3.208-1.039c-1.038-0.378-2.098-0.8-3.119-1.275-2.041-0.938-4.009-2-5.96-3.075-3.894-2.131-7.844-4.293-12.237-5.179 4.427 0.704 8.512 2.727 12.488 4.698 1.998 0.986 3.98 1.997 6.018 2.855 1.013 0.435 2.036 0.807 3.103 1.16l3.181 0.924c4.283 1.148 8.65 1.98 13.024 2.835 2.188 0.428 4.377 0.861 6.574 1.334 2.177 0.476 4.359 1.006 6.517 1.528 8.649 2.038 17.427 4 25.843 7.344 4.196 1.679 8.292 3.726 12.053 6.349 1.879 1.311 3.669 2.764 5.328 4.365 1.686 1.609 3.171 3.385 4.541 5.153 5.55 7.113 10.374 14.712 14.737 22.571 2.168 3.939 4.181 7.968 6.022 12.087l1.339 3.113c0.417 1.058 0.862 2.127 1.254 3.177 0.371 1.042 0.787 2.076 1.147 3.223 0.354 1.119 0.646 2.243 0.907 3.355 1.037 4.4 1.573 8.892 4.403 11.078 0.69 0.561 1.499 1.014 2.393 1.367 0.446 0.176 0.92 0.334 1.363 0.454 0.401 0.117 1.137 0.291 1.493 0.347 1.953 0.359 3.894 0.339 5.581-0.291 1.697-0.605 3.144-1.818 4.293-3.39 1.149-1.574 2.015-3.458 2.683-5.438 0.337-1.002 0.615-1.994 0.867-3.04 0.146-0.573 0.205-0.979 0.304-1.484 0.059-0.505 0.141-0.999 0.169-1.521 0.168-2.058 0.111-4.218-0.155-6.229l1.064 1.477-2.354-1.173-1.243-0.619 0.171-1.382c0.492-3.986 0.035-8.072-1.056-12.034-1.087-3.972-2.768-7.825-4.648-11.61-1.892-3.787-4.015-7.504-6.127-11.271-1.056-1.884-2.109-3.783-3.125-5.716-1.02-1.94-1.989-3.884-2.9-5.94-0.239-0.521-0.429-1.002-0.644-1.503l-0.156-0.372-0.159-0.406-0.297-0.77c-0.4-1.024-0.795-2.05-1.148-3.082-0.747-2.059-1.408-4.126-2.079-6.175-0.668-2.053-1.329-4.085-2.025-6.095l-1.07-2.954-1.188-2.955c-1.597-3.745-3.967-7.294-6.164-11.086-1.099-1.898-2.159-3.87-3.032-5.973-0.873-2.099-1.546-4.342-1.847-6.667l1.148 1.436c-6.279-2.384-12.196-5.527-17.785-9.139-5.574-3.637-10.808-7.773-15.636-12.344-4.819-4.575-9.24-9.598-12.977-15.127-1.865-2.765-3.554-5.657-4.99-8.682-0.718-1.518-1.379-3.039-1.955-4.644l-0.436-1.197-0.367-1.173c-0.122-0.404-0.243-0.751-0.367-1.203l-0.33-1.193c-0.878-3.184-1.647-6.385-2.394-9.58l-2.239-9.556c-1.531-6.335-3.363-12.612-6.019-18.522l-1.037-2.212c-0.35-0.702-0.762-1.396-1.188-2.081-0.859-1.37-1.792-2.71-2.737-4.041-1.897-2.66-3.866-5.279-5.814-7.916-1.953-2.633-3.883-5.288-5.703-8.021-0.907-1.368-1.791-2.754-2.588-4.191-0.395-0.72-0.773-1.451-1.089-2.211-0.313-0.751-0.601-1.547-0.591-2.372z"/>
	<path d="m203.29 359.71c-4.662-5.886-7.96-12.634-2-18.392 0 0 2.511 1.721 1.532 1.12 6.507 8.566 21.866 19.373 42.821 19.625 19.327 0.232 36.93 4.745 55.294 4.706 18.862-0.04 32.659-12.274 51.765-11.765 19.625 0.524 35.404 7.344 55.032 2.095 35.378-9.46 74.025-16.213 112.03-16.213 19.089 0 37.623 2.506 56.471 3.529 21.991 1.193 35.244-0.556 52.652-13.207 16.152-11.738 29.754-23.274 48.464-31.502 17.857-7.854 30.229-12.422 41.498-29.119 24.027-35.602-20.199-74.442 1.242-110.88 10.308-17.517 24.253-27.029 44.379-28.235 22.379-2.427 2.771 27.361-2.68 32.614-13.094 12.618-13.452 21.531-9.024 39.15 9.376 37.303 4.323 69.585-23.299 99.114-12.034 12.865-49.181 35.24-59.115 65.591-5.485 8.795 12.713 38.674 14.091 50.616 2.519 21.821-1.664 30.711-13.8 48.438-9.71 14.185-18.946 31.201-22.905 47.743-2.071 8.654-3.097 17.768 0.266 26.14 3.215 8.005 11.669 14.487 11.587 24.36 0.309 1.438-0.026 2.73-1.003 3.879 0 0-38.811 57.687-72.94 57.647-5.939-7e-3 -23.772 2.227-28.263-1.149-6.494-4.882-2.131-15.297 5.651-19.169 4.294-2.137 9.894 0.699 14.403-0.831 3.803-1.29 5.068-4.245 8.208-6.824 6.479-5.323 12.96-10.921 18.528-17.023 7.315-8.019 6.91-10.571-1.112-19.68-5.489-6.232-12.403-11.864-18.597-17.645-16.118-15.042-23.493-24.855-45.879-25.914-18.395-0.87-34.137-6.235-51.765-8.235-18.44-2.093-39.663-0.854-57.646-5.882l2.353-3.53c-8.333 22.566-0.918 45.006 5.879 65.883 4.237 13.017 10.841 50.237-4.702 57.647l-2.826 1.942c-8.955 0-24.624 7.972-29.735-1.942-5.155-9.998 9.189-15.412 16.175-20.439-6.33-18.986-16.732-67.778-38.908-76.031-12.303-7.41-15.435-7.746-24.448-9.674-9.405-2.012-8.781-0.494-17.051 3.496-12.273 5.921-26.004 4.062-38.535 10.589-13.549 7.058-24.384 18.827-36.207 28.82-13.529 11.436-29.125 16.16-42.813 26.478-18.501 13.944-57.398 62.455-80.946 29.702-3.263-5.587 4.674-12.704 10.561-14.148 11.133-2.73 13.813-4.382 22.376-12.91 12.714-12.663 25.76-24.406 38.532-36.762 11.429-11.057 25.748-26.222 32.089-40.916 3.544-8.211 0.803-17.138 3.44-25.912 6.923-23.037 5.923-30.371 5.923-30.371s-15.333-9-25.277-6.1c-9.246 2.697-17.493 0.09-26.557 0.767-18.045 1.348-24.123-4.04-35.157-14.823h0.017c-0.764-7.191 4.145-14.461 4.465-22.353 0.41-10.094 0.973-15.165 7.442-23.525 4.024-5.2 13.271-11.382 15.25-17.362 3.059-9.246-6.738-13.242-4.831-22.642l1.137 1.177c3.901 5.996 13.65 3.935 17.647 9.412"/>
	<path d="m203.29 359.71c-1.074-1.348-2.088-2.748-2.961-4.236-0.869-1.487-1.605-3.07-2.006-4.755-0.406-1.676-0.43-3.476 0.112-5.132 0.524-1.663 1.561-3.121 2.796-4.33l0.05-0.048 0.057 0.04 0.997 0.684 0.496 0.348 0.248 0.184 0.018 0.016 0.01 9e-3c-1e-3 0.01 8e-3 -0.022 0.033 0.072-0.029 0.157-0.139 0.076-0.142 0.087l-0.022-0.011-0.071-0.039-0.132-0.079 0.125-0.138c3.198 4.11 7.246 7.503 11.62 10.301 4.386 2.795 9.157 4.978 14.127 6.493 4.968 1.523 10.136 2.379 15.325 2.556 5.201 0.069 10.446 0.304 15.64 0.813 10.401 0.975 20.713 2.648 31.095 3.409 2.596 0.171 5.193 0.313 7.791 0.347 2.608 0.057 5.185 0.015 7.747-0.323 5.135-0.636 10.13-2.118 15.026-3.856 4.904-1.729 9.755-3.686 14.786-5.192 5.02-1.504 10.255-2.533 15.551-2.514 10.546 0.048 20.835 2.311 31.145 3.427 5.156 0.555 10.345 0.75 15.478 0.244 2.564-0.25 5.112-0.663 7.616-1.263 2.496-0.621 5.036-1.318 7.552-1.974 10.116-2.631 20.301-4.952 30.555-6.971 20.503-4.018 41.284-6.797 62.192-7.701 5.23-0.198 10.45-0.335 15.699-0.281 2.608 0.04 5.211 0.045 7.836 0.181 2.623 0.096 5.241 0.21 7.847 0.387 10.44 0.626 20.829 1.639 31.215 2.371 10.353 0.681 20.827 1.383 30.975-0.158 2.539-0.365 5.03-0.952 7.492-1.632 2.438-0.755 4.861-1.58 7.183-2.656 4.674-2.081 9.079-4.768 13.261-7.781 8.421-6.084 16.613-12.581 25.273-18.502 4.327-2.962 8.772-5.778 13.375-8.334 1.15-0.64 2.32-1.244 3.479-1.868l3.536-1.764 3.591-1.652 3.581-1.574c4.776-2.099 9.533-4.181 14.099-6.565 4.543-2.408 8.878-5.16 12.7-8.525 3.819-3.364 7.158-7.259 10.05-11.486 2.91-4.188 5.052-8.785 6.249-13.699 1.191-4.902 1.444-10.015 1.029-15.094-0.415-5.086-1.437-10.141-2.693-15.153-2.518-10.031-6.003-19.926-8.006-30.333-0.987-5.196-1.595-10.531-1.359-15.906 0.229-5.365 1.342-10.747 3.437-15.735 1.022-2.482 2.352-4.917 3.728-7.126 1.414-2.292 2.911-4.47 4.555-6.585 3.274-4.215 7.09-8.075 11.474-11.219 4.36-3.17 9.284-5.566 14.422-7.158 5.137-1.601 10.518-2.331 15.797-2.624 1.431-0.054 2.854-0.023 4.35 0.329 1.467 0.335 3.047 1.019 4.239 2.291 1.201 1.265 1.797 2.939 1.979 4.464 0.184 1.542 0.051 3.008-0.202 4.402-0.519 2.789-1.504 5.339-2.616 7.793-1.122 2.452-2.416 4.792-3.813 7.064-1.405 2.269-2.903 4.468-4.574 6.586-0.42 0.529-0.852 1.053-1.311 1.573-0.446 0.516-0.993 1.059-1.438 1.491-0.952 0.927-1.787 1.796-2.649 2.744-3.396 3.733-6.202 7.944-7.325 12.673-1.146 4.725-0.67 9.8 0.28 14.803 0.472 2.52 1.072 4.991 1.705 7.547 0.615 2.513 1.213 5.117 1.713 7.707 1.018 5.176 1.771 10.414 2.186 15.69 0.396 5.277 0.443 10.591 0.082 15.888-0.729 10.589-3.243 21.1-7.558 30.824-4.268 9.753-10.28 18.65-17.214 26.625-1.76 1.984-3.48 3.946-5.479 5.813-1.947 1.838-3.941 3.549-5.949 5.243l-12.054 9.985c-7.964 6.665-15.691 13.59-22.47 21.331-6.747 7.716-12.575 16.346-15.757 25.946l-0.07 0.214-0.116 0.186c-0.766 1.229-0.87 3.291-0.636 5.291 0.228 2.03 0.729 4.111 1.326 6.173 1.212 4.132 2.81 8.223 4.463 12.299l5.073 12.285c0.829 2.072 1.639 4.162 2.369 6.31 0.718 2.157 1.405 4.336 1.749 6.771 0.514 4.468 0.85 8.997 0.707 13.557-0.143 4.552-0.8 9.178-2.232 13.569-1.421 4.396-3.479 8.51-5.759 12.394-2.278 3.885-4.797 7.6-7.27 11.252-2.479 3.662-4.809 7.331-7.04 11.123-2.222 3.778-4.313 7.629-6.237 11.557-3.84 7.851-7.04 16.022-8.994 24.465-0.972 4.227-1.656 8.49-1.669 12.716-0.021 4.226 0.681 8.367 2.337 12.187 1.638 3.654 4.452 7.122 6.896 10.957 1.227 1.928 2.385 3.988 3.229 6.251 0.849 2.253 1.34 4.72 1.319 7.188l-0.043-0.425c0.093 0.468 0.15 0.95 0.153 1.453-8e-3 0.505-0.072 1.014-0.197 1.513-0.138 0.496-0.327 0.968-0.563 1.405-0.241 0.432-0.519 0.819-0.814 1.181l0.132-0.175c-4.967 7.185-10.309 13.947-15.986 20.507-5.688 6.531-11.719 12.792-18.278 18.523-6.561 5.709-13.649 10.965-21.648 14.819-4.004 1.896-8.253 3.419-12.723 4.186-0.557 0.104-1.118 0.186-1.683 0.249-0.563 0.078-1.129 0.133-1.698 0.168-1.122 0.108-2.326 0.089-3.334 0.115-2.037 0.058-4.212 0.21-6.351 0.332-4.306 0.245-8.642 0.486-13.086 0.296-2.232-0.125-4.469-0.279-6.894-1.042-0.608-0.202-1.236-0.456-1.889-0.865l-0.244-0.16-0.122-0.082c0.021 0.021-0.166-0.12-0.172-0.128l-0.311-0.255c-0.184-0.139-0.466-0.406-0.728-0.664-0.985-0.98-1.72-2.136-2.186-3.42-0.953-2.575-0.694-5.293 0.064-7.619 0.771-2.353 2.067-4.427 3.656-6.212 1.616-1.789 3.479-3.255 5.744-4.354 1.207-0.579 2.58-0.849 3.807-0.92 1.244-0.078 2.415 1e-3 3.521 0.103 2.204 0.206 4.243 0.502 5.963 0.248 0.215-0.028 0.42-0.07 0.621-0.116 0.099-0.027 0.202-0.046 0.297-0.077l0.145-0.044 0.072-0.022c0.085-0.029-0.038 0.018 0.012-2e-3 0.234-0.093 0.538-0.196 0.716-0.281 0.168-0.091 0.32-0.139 0.512-0.258 0.742-0.408 1.421-0.941 2.106-1.632 0.688-0.68 1.381-1.481 2.162-2.305 0.392-0.409 0.795-0.824 1.233-1.223 0.427-0.403 0.909-0.797 1.302-1.123 1.664-1.37 3.296-2.732 4.913-4.116 3.236-2.772 6.396-5.618 9.392-8.603 1.501-1.492 2.949-3.02 4.363-4.588 1.351-1.535 2.695-3.16 3.432-4.738 0.751-1.589 0.7-2.899-0.088-4.558-0.785-1.626-2.073-3.275-3.397-4.876-0.659-0.791-1.381-1.632-2.048-2.367-0.727-0.782-1.449-1.605-2.18-2.353-1.439-1.485-2.952-2.963-4.504-4.419-3.102-2.906-6.331-5.727-9.525-8.641-3.21-2.922-6.294-5.917-9.398-8.876-6.182-5.896-12.429-11.698-20.034-14.846-3.773-1.601-7.81-2.568-11.937-3.096-2.084-0.285-4.104-0.387-6.298-0.522-2.121-0.115-4.334-0.31-6.508-0.543-8.67-0.945-17.146-2.774-25.542-4.482-4.201-0.854-8.39-1.671-12.589-2.33l-3.15-0.464-3.135-0.395-3.205-0.329-3.166-0.266c-8.494-0.649-17.09-0.862-25.713-1.458-8.615-0.614-17.314-1.567-25.806-3.913l-2.429-0.67 1.4-2.101 2.354-3.528 8.557-12.825-5.329 14.468c-1.799 4.886-2.917 10.011-3.356 15.211-0.446 5.202-0.229 10.468 0.45 15.688 1.365 10.465 4.53 20.685 7.826 30.877l1.241 3.854c0.409 1.331 0.769 2.643 1.107 3.97 0.676 2.647 1.247 5.311 1.743 7.987 0.985 5.354 1.664 10.767 1.918 16.233 0.222 5.462 0.083 11.003-1.14 16.502-0.628 2.738-1.55 5.477-3.051 8.017-0.76 1.262-1.675 2.462-2.764 3.524-1.093 1.055-2.371 1.949-3.754 2.617l0.238-0.137-2.827 1.94-0.442 0.304-0.55 4e-3c-2.263 0.02-4.713 0.504-7.159 1.01-2.46 0.513-4.953 1.092-7.536 1.506-2.581 0.399-5.262 0.701-8.083 0.329-1.403-0.194-2.849-0.587-4.192-1.309-1.344-0.713-2.54-1.772-3.414-3.002-0.234-0.301-0.426-0.62-0.607-0.944l-0.278-0.483-0.234-0.501-0.199-0.432c-0.067-0.147-0.138-0.362-0.205-0.541-0.14-0.375-0.268-0.752-0.345-1.118-0.375-1.466-0.406-3.102-0.013-4.61 0.4-1.508 1.15-2.841 2.02-3.979 0.874-1.142 1.868-2.111 2.897-2.987 2.067-1.746 4.275-3.144 6.458-4.485 2.177-1.338 4.378-2.592 6.329-3.978l-0.625 1.934c-1.163-3.522-2.18-7.039-3.212-10.55l-3.109-10.497c-2.119-6.97-4.381-13.884-7.025-20.628-2.657-6.729-5.652-13.342-9.495-19.365-1.925-3-4.074-5.846-6.552-8.309-2.467-2.463-5.309-4.509-8.456-5.7l-0.144-0.054-0.128-0.077c-4.969-2.97-9.956-5.906-15.314-7.505-2.686-0.808-5.529-1.362-8.392-1.985l-2.117-0.43c-0.686-0.128-1.372-0.245-2.055-0.331-1.362-0.163-2.658-0.244-3.798 0.054-1.148 0.262-2.349 0.895-3.631 1.584-1.273 0.686-2.589 1.396-3.924 2.047-0.343 0.166-0.645 0.327-1.023 0.496l-1 0.456c-0.714 0.308-1.426 0.599-2.129 0.859-1.417 0.525-2.855 0.978-4.301 1.37-5.793 1.571-11.652 2.201-17.291 3.314-2.823 0.549-5.595 1.221-8.264 2.146-1.334 0.462-2.646 0.977-3.914 1.577-0.322 0.141-0.63 0.308-0.946 0.461l-0.444 0.222-0.48 0.263-1.92 1.05c-2.434 1.416-4.845 2.995-7.178 4.67-2.324 1.694-4.586 3.485-6.811 5.333-4.437 3.715-8.717 7.659-13.068 11.567-2.188 1.961-4.356 3.873-6.649 5.804-2.224 1.821-4.65 3.685-7.108 5.304-4.914 3.306-10.105 6.104-15.258 8.844-5.16 2.732-10.286 5.447-15.143 8.549-2.412 1.59-4.768 3.187-7.003 5.001-2.231 1.809-4.404 3.732-6.562 5.68-4.315 3.9-8.59 7.891-12.996 11.752-4.405 3.86-8.928 7.62-13.73 11.047-4.797 3.416-9.887 6.538-15.473 8.725-2.793 1.077-5.72 1.902-8.75 2.247-3.021 0.35-6.154 0.193-9.127-0.647-2.98-0.819-5.743-2.317-8.129-4.216-2.386-1.906-4.409-4.188-6.167-6.616l-0.032-0.044-0.028-0.047c-0.652-1.125-0.987-2.482-0.895-3.78 0.083-1.298 0.5-2.508 1.069-3.569 1.148-2.136 2.811-3.813 4.631-5.213 1.838-1.385 3.867-2.52 6.163-3.161 2.166-0.549 4.214-1.055 6.258-1.706 2.032-0.645 3.986-1.422 5.797-2.451 1.813-1.024 3.479-2.324 5.09-3.727 1.608-1.408 3.165-2.908 4.706-4.438l4.691-4.563c3.117-3.043 6.247-6.076 9.438-9.057l9.526-8.966 9.513-8.958c3.154-3 6.34-5.972 9.419-9.035 6.166-6.112 12.106-12.47 17.421-19.308 2.65-3.421 5.141-6.965 7.333-10.678 0.551-0.927 1.093-1.858 1.58-2.817l0.754-1.428 0.685-1.457c0.218-0.476 0.476-0.998 0.662-1.435 0.191-0.507 0.404-1.02 0.578-1.521 0.142-0.495 0.3-0.979 0.434-1.481 0.111-0.515 0.239-1.025 0.339-1.545 0.777-4.171 0.558-8.531 0.793-12.929 0.117-2.2 0.351-4.423 0.862-6.605 0.561-2.179 1.188-4.213 1.778-6.326l0.898-3.143 0.783-3.152 0.782-3.154 0.665-3.181c0.478-2.117 0.783-4.256 1.125-6.39 0.108-1.069 0.246-2.142 0.331-3.209l0.081-1.599c0-0.51 9e-3 -1.085-0.032-1.531l0.321 0.482c-1.644-0.941-3.381-1.808-5.128-2.596-1.752-0.789-3.538-1.503-5.354-2.115-1.816-0.611-3.665-1.121-5.537-1.472-1.871-0.343-3.771-0.535-5.645-0.423-0.934 0.06-1.866 0.174-2.759 0.417-0.956 0.221-1.852 0.516-2.854 0.681-1.96 0.389-3.918 0.593-5.888 0.636-3.936 0.1-7.82-0.316-11.674-0.52-1.927-0.099-3.852-0.135-5.765-0.037-1.917 0.104-3.886 0.243-5.842 0.231-3.908-1e-3 -7.873-0.394-11.638-1.609-1.879-0.604-3.694-1.409-5.402-2.392-1.717-0.968-3.315-2.12-4.85-3.334-3.054-2.454-5.83-5.19-8.603-7.906l-0.713-0.698 0.996 3e-3h0.017l-0.403 0.448c-0.203-2.039 0.037-4.078 0.464-6.039 0.429-1.966 1.038-3.87 1.643-5.761 0.606-1.891 1.214-3.773 1.672-5.687 0.474-1.918 0.724-3.842 0.791-5.826 0.2-3.958 0.391-7.99 1.542-11.857 1.131-3.872 3.26-7.357 5.689-10.503 1.196-1.608 2.629-3.027 4.06-4.401l4.353-4.067c1.438-1.363 2.851-2.753 4.13-4.257 1.265-1.501 2.44-3.137 3.066-4.979 0.627-1.871 0.771-3.875 0.318-5.79-0.435-1.919-1.37-3.686-2.318-5.423-0.948-1.739-1.924-3.497-2.494-5.421-0.586-1.915-0.673-3.975-0.266-5.932l0.032-0.152 0.107 0.111 1.133 1.181 5e-3 5e-3 4e-3 6e-3c0.235 0.351 0.489 0.688 0.769 1.006 0.286 0.312 0.591 0.604 0.915 0.877 0.33 0.266 0.674 0.512 1.033 0.739 0.362 0.22 0.734 0.424 1.116 0.611 1.532 0.739 3.182 1.201 4.824 1.65 1.643 0.45 3.302 0.876 4.875 1.545 0.785 0.335 1.544 0.735 2.238 1.234 0.346 0.25 0.671 0.526 0.979 0.821 0.303 0.301 0.579 0.626 0.835 0.968-0.258-0.34-0.537-0.662-0.841-0.961-0.31-0.292-0.637-0.566-0.984-0.813-0.695-0.493-1.456-0.886-2.241-1.215-1.574-0.656-3.234-1.069-4.88-1.507s-3.303-0.888-4.854-1.621c-0.386-0.186-0.763-0.389-1.131-0.609-0.364-0.227-0.715-0.474-1.052-0.741-0.331-0.274-0.644-0.569-0.937-0.884-0.287-0.321-0.548-0.663-0.79-1.019l9e-3 0.011-1.142-1.172 0.139-0.041c-0.387 1.937-0.286 3.958 0.305 5.84 0.575 1.891 1.555 3.626 2.517 5.359 0.96 1.731 1.924 3.511 2.385 5.478 0.483 1.954 0.343 4.056-0.279 5.953-0.644 1.939-1.829 3.597-3.099 5.131-1.284 1.532-2.696 2.941-4.128 4.32l-4.321 4.098c-1.419 1.384-2.811 2.782-3.976 4.373-2.388 3.14-4.444 6.575-5.519 10.36-1.095 3.779-1.273 7.764-1.448 11.717-0.054 1.986-0.304 4.018-0.775 5.959-0.456 1.952-1.06 3.855-1.655 5.749-0.594 1.893-1.185 3.78-1.592 5.698-0.406 1.913-0.62 3.869-0.417 5.79l0.047 0.447-0.45 1e-3h-0.017l0.283-0.695c2.786 2.698 5.566 5.403 8.582 7.798 1.515 1.185 3.083 2.3 4.754 3.229 1.663 0.943 3.419 1.709 5.24 2.282 3.644 1.154 7.505 1.52 11.347 1.498 1.927 0 3.833-0.147 5.789-0.264 1.962-0.111 3.925-0.084 5.874 5e-3 3.896 0.186 7.754 0.574 11.587 0.455 1.911-0.05 3.827-0.265 5.671-0.641 0.916-0.15 1.871-0.465 2.804-0.685 0.98-0.271 1.985-0.399 2.985-0.469 2.005-0.13 3.996 0.065 5.941 0.411 1.945 0.354 3.851 0.868 5.715 1.486 1.865 0.618 3.692 1.337 5.483 2.132 1.794 0.8 3.541 1.657 5.271 2.635l0.297 0.168 0.024 0.314c0.182 2.364-0.13 4.479-0.345 6.693-0.334 2.17-0.635 4.349-1.105 6.487l-0.656 3.22-0.774 3.194-0.776 3.194-0.882 3.146c-0.571 2.086-1.213 4.223-1.727 6.268-0.472 2.065-0.688 4.195-0.79 6.345-0.213 4.294 0.048 8.71-0.746 13.143-0.103 0.551-0.235 1.099-0.353 1.648-0.143 0.551-0.318 1.104-0.479 1.656-0.181 0.528-0.384 1.023-0.575 1.537-0.236 0.566-0.463 1.021-0.695 1.538l-0.697 1.503-0.765 1.467c-0.495 0.987-1.043 1.941-1.6 2.892-2.217 3.805-4.728 7.418-7.395 10.899-5.346 6.958-11.299 13.396-17.472 19.584-3.083 3.101-6.253 6.092-9.397 9.115-3.139 3.03-6.311 6.018-9.482 9.006l-9.481 8.984c-3.168 2.979-6.287 6.021-9.395 9.076l-4.664 4.567c-1.547 1.545-3.124 3.076-4.789 4.545-1.667 1.461-3.448 2.866-5.428 3.995-1.977 1.133-4.092 1.978-6.208 2.655-2.105 0.681-4.289 1.228-6.344 1.756-1.907 0.535-3.755 1.56-5.382 2.802-1.62 1.248-3.076 2.767-3.984 4.486-0.927 1.715-1.122 3.615-0.201 5.125l-0.059-0.091c1.668 2.288 3.563 4.401 5.745 6.133 2.184 1.724 4.655 3.048 7.312 3.77 5.337 1.489 11.122 0.495 16.371-1.578 5.289-2.089 10.227-5.124 14.909-8.484 4.689-3.368 9.142-7.092 13.498-10.935 4.358-3.844 8.603-7.832 12.932-11.771 2.167-1.967 4.357-3.921 6.653-5.795 2.291-1.872 4.764-3.564 7.217-5.19 9.946-6.414 20.763-10.995 30.293-17.457 2.41-1.603 4.612-3.303 6.896-5.183 2.163-1.836 4.367-3.788 6.518-5.729 4.318-3.903 8.608-7.885 13.107-11.677 2.258-1.888 4.565-3.728 6.951-5.479 2.402-1.734 4.868-3.367 7.475-4.892l1.917-1.056 0.479-0.264 0.532-0.271c0.34-0.166 0.674-0.347 1.02-0.5 1.367-0.652 2.773-1.21 4.194-1.707 2.843-0.995 5.754-1.706 8.655-2.281 5.802-1.157 11.589-1.809 17.069-3.319 1.368-0.377 2.714-0.806 4.031-1.299 0.664-0.248 1.301-0.513 1.927-0.782l0.989-0.455c0.288-0.128 0.631-0.31 0.944-0.462 1.285-0.633 2.535-1.312 3.828-2.014 1.282-0.684 2.672-1.47 4.375-1.882 1.703-0.431 3.381-0.302 4.9-0.128 0.765 0.095 1.518 0.221 2.266 0.357l2.174 0.434c2.838 0.606 5.735 1.15 8.645 2.008 2.913 0.848 5.709 2.068 8.359 3.415 2.651 1.357 5.204 2.833 7.728 4.338l-0.272-0.131c3.714 1.393 6.928 3.729 9.632 6.409 2.72 2.687 5.006 5.709 7.037 8.85 2.029 3.146 3.802 6.423 5.422 9.757 1.62 3.336 3.07 6.738 4.424 10.169 2.7 6.867 4.994 13.859 7.136 20.874l3.13 10.528c1.033 3.502 2.053 7.008 3.186 10.427l0.4 1.206-1.025 0.728c-2.185 1.552-4.398 2.806-6.536 4.126-2.132 1.311-4.215 2.646-6.021 4.179-1.796 1.521-3.303 3.301-3.804 5.205-0.239 0.949-0.224 1.923 0.024 2.909 0.05 0.257 0.133 0.478 0.212 0.697 0.044 0.118 0.061 0.209 0.125 0.351l0.2 0.432 0.166 0.36 0.199 0.339c0.127 0.229 0.26 0.455 0.42 0.651 1.177 1.677 3.048 2.606 5.271 2.896 2.218 0.298 4.64 0.058 7.054-0.327 2.423-0.39 4.872-0.96 7.374-1.484 2.509-0.514 5.059-1.058 7.876-1.094l-0.992 0.308 2.825-1.944 0.114-0.078 0.124-0.06c2.08-0.989 3.77-2.694 5.01-4.78 1.236-2.093 2.066-4.503 2.631-6.993 1.114-5.007 1.264-10.308 1.039-15.561-0.25-5.267-0.914-10.537-1.88-15.746-0.484-2.604-1.044-5.196-1.699-7.753-0.327-1.274-0.68-2.553-1.062-3.79l-1.233-3.813c-3.313-10.221-6.569-20.633-8.005-31.511-0.713-5.427-0.952-10.957-0.485-16.464 0.459-5.504 1.642-10.968 3.552-16.168l3.229 1.643-2.351 3.532-1.028-2.771c8.097 2.229 16.572 3.164 25.076 3.758 8.519 0.581 17.108 0.783 25.75 1.433l3.254 0.271 3.205 0.325c2.201 0.259 4.328 0.544 6.482 0.877 4.289 0.669 8.535 1.493 12.755 2.346 8.435 1.708 16.786 3.495 25.211 4.402 2.096 0.223 4.163 0.405 6.332 0.521 2.091 0.127 4.366 0.24 6.54 0.538 4.389 0.555 8.787 1.596 12.932 3.349 4.152 1.734 7.976 4.165 11.436 6.895 3.471 2.73 6.637 5.715 9.761 8.679 3.117 2.965 6.2 5.952 9.348 8.81 3.154 2.873 6.401 5.7 9.572 8.665 1.582 1.482 3.146 3.002 4.695 4.602 0.771 0.789 1.466 1.581 2.202 2.371 0.775 0.855 1.453 1.645 2.171 2.503 1.399 1.707 2.821 3.443 3.925 5.688 0.533 1.12 0.976 2.444 0.999 3.876 0.047 1.429-0.348 2.827-0.889 3.971-1.111 2.317-2.593 4.006-4.055 5.698-1.46 1.623-2.966 3.215-4.511 4.752-3.086 3.082-6.313 5.994-9.598 8.813-1.645 1.411-3.309 2.802-4.959 4.164-0.434 0.361-0.784 0.647-1.138 0.981-0.355 0.323-0.701 0.68-1.052 1.047-0.698 0.732-1.408 1.561-2.245 2.395-0.825 0.833-1.836 1.661-2.979 2.287-0.267 0.161-0.617 0.31-0.93 0.456-0.311 0.138-0.519 0.203-0.783 0.309-0.438 0.15-0.674 0.215-1.022 0.299-0.321 0.075-0.643 0.139-0.96 0.182-2.558 0.35-4.822-0.048-6.882-0.217-2.066-0.191-3.916-0.213-5.332 0.482-1.6 0.78-3.193 1.996-4.442 3.404-1.263 1.417-2.279 3.072-2.841 4.811-0.563 1.729-0.671 3.54-0.105 5.022 0.26 0.738 0.714 1.433 1.252 1.966 0.122 0.118 0.216 0.234 0.461 0.423l0.312 0.255c0.044 0.038-0.085-0.068-9e-3 -0.012l0.048 0.028 0.093 0.061c0.256 0.164 0.626 0.326 1.036 0.46 1.681 0.538 3.772 0.737 5.818 0.834 4.143 0.176 8.4-0.057 12.667-0.307 2.149-0.124 4.26-0.279 6.517-0.346 1.139-0.029 2.087-9e-3 3.104-0.107 0.503-0.031 1.005-0.08 1.507-0.151 0.502-0.056 1.004-0.126 1.503-0.221 4.007-0.681 7.928-2.067 11.682-3.843 7.511-3.604 14.376-8.653 20.76-14.203 6.389-5.568 12.315-11.704 17.915-18.12 5.575-6.421 10.902-13.161 15.714-20.105l0.043-0.062 0.09-0.113c0.141-0.178 0.268-0.354 0.366-0.527 0.093-0.175 0.159-0.348 0.213-0.521 0.04-0.176 0.064-0.355 0.07-0.545-4e-3 -0.193-0.027-0.398-0.065-0.613l-0.047-0.258 3e-3 -0.168c0.065-3.946-1.613-7.737-3.928-11.323-2.279-3.638-5.163-7.077-7.18-11.531-1.872-4.318-2.666-9.093-2.63-13.708 0.021-4.639 0.769-9.172 1.781-13.564 2.053-8.822 5.372-17.241 9.313-25.281 1.977-4.022 4.118-7.954 6.389-11.806 2.262-3.838 4.686-7.644 7.175-11.31 2.494-3.675 4.95-7.293 7.156-11.045 2.202-3.742 4.124-7.597 5.435-11.634 1.319-4.033 1.928-8.261 2.069-12.548 0.139-4.291-0.173-8.618-0.663-12.943-0.268-1.956-0.896-4.03-1.577-6.067-0.692-2.044-1.479-4.086-2.292-6.125l-5.053-12.271c-1.668-4.127-3.298-8.297-4.576-12.666-0.629-2.188-1.176-4.427-1.442-6.8-0.131-1.186-0.182-2.413-0.059-3.695 0.127-1.273 0.45-2.648 1.235-3.935l-0.187 0.4c3.422-10.272 9.56-19.258 16.509-27.196 6.987-7.959 14.863-14.989 22.896-21.697l12.058-9.964c1.98-1.667 3.947-3.353 5.795-5.094 1.821-1.689 3.553-3.649 5.253-5.565 6.749-7.746 12.558-16.333 16.671-25.708 4.159-9.35 6.585-19.428 7.301-29.647 0.354-5.111 0.314-10.253-0.063-15.378-0.398-5.124-1.126-10.229-2.114-15.289-0.486-2.532-1.052-5.014-1.674-7.567-0.618-2.507-1.248-5.106-1.732-7.715-0.975-5.195-1.552-10.767-0.227-16.247 0.672-2.711 1.771-5.319 3.209-7.665 1.418-2.363 3.115-4.5 4.919-6.489 0.892-0.981 1.869-1.99 2.786-2.88 0.49-0.478 0.87-0.853 1.279-1.322 0.405-0.457 0.804-0.938 1.194-1.43 1.563-1.976 3.01-4.092 4.353-6.255 1.336-2.169 2.572-4.401 3.623-6.693 1.044-2.285 1.936-4.648 2.378-6.993 0.453-2.321 0.33-4.706-0.901-5.97-1.196-1.315-3.637-1.712-5.987-1.596-5.127 0.271-10.162 0.945-15.004 2.433-4.826 1.48-9.416 3.695-13.506 6.647-4.11 2.927-7.72 6.547-10.854 10.554-1.564 1.997-3.031 4.12-4.363 6.262-1.385 2.214-2.565 4.372-3.544 6.709-1.96 4.632-3.013 9.617-3.248 14.668-0.238 5.058 0.318 10.162 1.26 15.208 1.905 10.112 5.338 19.982 7.871 30.189 1.262 5.104 2.303 10.313 2.72 15.633 0.417 5.31 0.142 10.748-1.151 15.989-1.28 5.227-3.646 10.23-6.705 14.59-3.009 4.37-6.519 8.445-10.543 11.964-4.025 3.521-8.573 6.382-13.246 8.837-4.692 2.431-9.507 4.517-14.285 6.599l-3.587 1.563-3.521 1.606-3.471 1.717c-1.14 0.609-2.289 1.197-3.42 1.822-4.525 2.495-8.911 5.252-13.2 8.167-8.586 5.829-16.776 12.279-25.284 18.386-4.286 3.068-8.841 5.831-13.708 7.979-2.417 1.11-4.945 1.965-7.489 2.741-2.565 0.702-5.162 1.302-7.79 1.672-5.25 0.79-10.544 0.971-15.793 0.885l-3.944-0.112-3.908-0.186-7.835-0.51c-10.424-0.769-20.801-1.814-31.187-2.47-2.598-0.186-5.189-0.307-7.779-0.41-2.583-0.143-5.198-0.158-7.805-0.206-5.182-0.071-10.394 0.051-15.588 0.228-20.793 0.789-41.502 3.445-61.957 7.34-10.227 1.958-20.404 4.22-30.493 6.788-2.535 0.646-5.028 1.317-7.598 1.942-2.571 0.602-5.187 1.012-7.814 1.254-5.259 0.491-10.549 0.26-15.755-0.329-10.408-1.188-20.628-3.486-31.003-3.585-5.155-0.046-10.276 0.927-15.241 2.387-4.976 1.46-9.822 3.384-14.764 5.097-4.932 1.722-10.009 3.203-15.246 3.823-2.616 0.331-5.269 0.359-7.873 0.288-2.617-0.048-5.229-0.205-7.836-0.391-10.429-0.82-20.73-2.55-31.097-3.576-5.188-0.533-10.369-0.794-15.598-0.909-5.235-0.22-10.44-1.126-15.433-2.702-4.995-1.567-9.779-3.803-14.167-6.65-4.375-2.85-8.415-6.292-11.599-10.453l-0.305-0.398 0.429 0.26 0.127 0.077 0.061 0.034 0.012 6e-3c3e-3 0.012-0.075-0.054-0.119 0.087 0.023 0.087 0.027 0.051 0.021 0.057l-4e-3 -3e-3 -0.01-9e-3 -0.236-0.178-0.491-0.35-0.99-0.691 0.106-9e-3c-1.23 1.185-2.263 2.613-2.792 4.246-0.547 1.628-0.54 3.406-0.15 5.075 0.384 1.677 1.104 3.262 1.96 4.753 0.85 1.498 1.852 2.906 2.915 4.262z"/>
</svg>